<mxfile host="app.diagrams.net" agent="Mozilla/5.0 (Windows NT 10.0; Win64; x64) AppleWebKit/537.36 (KHTML, like Gecko) Chrome/136.0.0.0 Safari/537.36" version="27.0.6">
  <diagram name="Page-1" id="nPeq9zamXpT1PYiMHK2F">
    <mxGraphModel dx="2031" dy="630" grid="1" gridSize="10" guides="1" tooltips="1" connect="1" arrows="1" fold="1" page="1" pageScale="1" pageWidth="850" pageHeight="1100" math="0" shadow="0">
      <root>
        <mxCell id="0" />
        <mxCell id="1" parent="0" />
        <mxCell id="T3i2_18rqvz0KpT3URYq-7" style="edgeStyle=orthogonalEdgeStyle;rounded=0;orthogonalLoop=1;jettySize=auto;html=1;exitX=0.5;exitY=1;exitDx=0;exitDy=0;entryX=0.5;entryY=0;entryDx=0;entryDy=0;" parent="1" source="T3i2_18rqvz0KpT3URYq-1" target="T3i2_18rqvz0KpT3URYq-3" edge="1">
          <mxGeometry relative="1" as="geometry" />
        </mxCell>
        <mxCell id="T3i2_18rqvz0KpT3URYq-8" style="edgeStyle=orthogonalEdgeStyle;rounded=0;orthogonalLoop=1;jettySize=auto;html=1;exitX=0.5;exitY=1;exitDx=0;exitDy=0;entryX=0.5;entryY=0;entryDx=0;entryDy=0;" parent="1" source="T3i2_18rqvz0KpT3URYq-1" target="T3i2_18rqvz0KpT3URYq-4" edge="1">
          <mxGeometry relative="1" as="geometry" />
        </mxCell>
        <mxCell id="T3i2_18rqvz0KpT3URYq-9" style="edgeStyle=orthogonalEdgeStyle;rounded=0;orthogonalLoop=1;jettySize=auto;html=1;exitX=0.5;exitY=1;exitDx=0;exitDy=0;entryX=0.5;entryY=0;entryDx=0;entryDy=0;" parent="1" source="T3i2_18rqvz0KpT3URYq-1" target="T3i2_18rqvz0KpT3URYq-5" edge="1">
          <mxGeometry relative="1" as="geometry" />
        </mxCell>
        <mxCell id="T3i2_18rqvz0KpT3URYq-10" style="edgeStyle=orthogonalEdgeStyle;rounded=0;orthogonalLoop=1;jettySize=auto;html=1;exitX=0.5;exitY=1;exitDx=0;exitDy=0;entryX=0.5;entryY=0;entryDx=0;entryDy=0;" parent="1" source="T3i2_18rqvz0KpT3URYq-1" target="T3i2_18rqvz0KpT3URYq-6" edge="1">
          <mxGeometry relative="1" as="geometry" />
        </mxCell>
        <mxCell id="T3i2_18rqvz0KpT3URYq-1" value="Home Page" style="rounded=0;whiteSpace=wrap;html=1;" parent="1" vertex="1">
          <mxGeometry x="230" y="80" width="120" height="60" as="geometry" />
        </mxCell>
        <mxCell id="T3i2_18rqvz0KpT3URYq-11" style="edgeStyle=orthogonalEdgeStyle;rounded=0;orthogonalLoop=1;jettySize=auto;html=1;exitX=0;exitY=0.5;exitDx=0;exitDy=0;entryX=0.5;entryY=0;entryDx=0;entryDy=0;" parent="1" source="T3i2_18rqvz0KpT3URYq-3" target="T3i2_18rqvz0KpT3URYq-1" edge="1">
          <mxGeometry relative="1" as="geometry" />
        </mxCell>
        <mxCell id="T3i2_18rqvz0KpT3URYq-3" value="How it works" style="rounded=0;whiteSpace=wrap;html=1;" parent="1" vertex="1">
          <mxGeometry x="20" y="180" width="120" height="60" as="geometry" />
        </mxCell>
        <mxCell id="T3i2_18rqvz0KpT3URYq-12" style="edgeStyle=orthogonalEdgeStyle;rounded=0;orthogonalLoop=1;jettySize=auto;html=1;exitX=0;exitY=0.5;exitDx=0;exitDy=0;" parent="1" source="T3i2_18rqvz0KpT3URYq-4" edge="1">
          <mxGeometry relative="1" as="geometry">
            <mxPoint x="290" y="80" as="targetPoint" />
            <Array as="points">
              <mxPoint x="150" y="210" />
              <mxPoint x="150" y="260" />
              <mxPoint y="260" />
              <mxPoint y="60" />
              <mxPoint x="290" y="60" />
            </Array>
          </mxGeometry>
        </mxCell>
        <mxCell id="T3i2_18rqvz0KpT3URYq-4" value="Pricing" style="rounded=0;whiteSpace=wrap;html=1;" parent="1" vertex="1">
          <mxGeometry x="160" y="180" width="120" height="60" as="geometry" />
        </mxCell>
        <mxCell id="T3i2_18rqvz0KpT3URYq-13" style="edgeStyle=orthogonalEdgeStyle;rounded=0;orthogonalLoop=1;jettySize=auto;html=1;exitX=0;exitY=0.5;exitDx=0;exitDy=0;" parent="1" source="T3i2_18rqvz0KpT3URYq-5" edge="1">
          <mxGeometry relative="1" as="geometry">
            <mxPoint x="290" y="80" as="targetPoint" />
            <Array as="points">
              <mxPoint x="290" y="210" />
              <mxPoint x="290" y="260" />
              <mxPoint y="260" />
              <mxPoint y="60" />
              <mxPoint x="291" y="60" />
              <mxPoint x="291" y="80" />
            </Array>
          </mxGeometry>
        </mxCell>
        <mxCell id="T3i2_18rqvz0KpT3URYq-16" style="edgeStyle=orthogonalEdgeStyle;rounded=0;orthogonalLoop=1;jettySize=auto;html=1;exitX=0.5;exitY=1;exitDx=0;exitDy=0;entryX=0.5;entryY=0;entryDx=0;entryDy=0;" parent="1" source="T3i2_18rqvz0KpT3URYq-5" target="T3i2_18rqvz0KpT3URYq-15" edge="1">
          <mxGeometry relative="1" as="geometry" />
        </mxCell>
        <mxCell id="T3i2_18rqvz0KpT3URYq-5" value="Guest Login" style="rounded=0;whiteSpace=wrap;html=1;fillColor=#60a917;fontColor=#ffffff;strokeColor=#2D7600;" parent="1" vertex="1">
          <mxGeometry x="300" y="180" width="120" height="60" as="geometry" />
        </mxCell>
        <mxCell id="T3i2_18rqvz0KpT3URYq-14" style="edgeStyle=orthogonalEdgeStyle;rounded=0;orthogonalLoop=1;jettySize=auto;html=1;exitX=0;exitY=0.5;exitDx=0;exitDy=0;" parent="1" source="T3i2_18rqvz0KpT3URYq-6" edge="1">
          <mxGeometry relative="1" as="geometry">
            <mxPoint x="290" y="80" as="targetPoint" />
            <Array as="points">
              <mxPoint x="430" y="210" />
              <mxPoint x="430" y="260" />
              <mxPoint y="260" />
              <mxPoint y="60" />
              <mxPoint x="290" y="60" />
            </Array>
          </mxGeometry>
        </mxCell>
        <mxCell id="qWnpxLDIaZIVIo5OUuWz-7" style="edgeStyle=orthogonalEdgeStyle;rounded=0;orthogonalLoop=1;jettySize=auto;html=1;exitX=0.5;exitY=1;exitDx=0;exitDy=0;entryX=0.5;entryY=0;entryDx=0;entryDy=0;" edge="1" parent="1" source="T3i2_18rqvz0KpT3URYq-6" target="qWnpxLDIaZIVIo5OUuWz-6">
          <mxGeometry relative="1" as="geometry" />
        </mxCell>
        <mxCell id="T3i2_18rqvz0KpT3URYq-6" value="Sign Up / Login" style="rounded=0;whiteSpace=wrap;html=1;fillColor=#fa6800;fontColor=#000000;strokeColor=#C73500;" parent="1" vertex="1">
          <mxGeometry x="440" y="180" width="120" height="60" as="geometry" />
        </mxCell>
        <mxCell id="T3i2_18rqvz0KpT3URYq-18" style="edgeStyle=orthogonalEdgeStyle;rounded=0;orthogonalLoop=1;jettySize=auto;html=1;exitX=0.5;exitY=1;exitDx=0;exitDy=0;entryX=0.5;entryY=0;entryDx=0;entryDy=0;" parent="1" source="T3i2_18rqvz0KpT3URYq-15" target="T3i2_18rqvz0KpT3URYq-17" edge="1">
          <mxGeometry relative="1" as="geometry" />
        </mxCell>
        <mxCell id="T3i2_18rqvz0KpT3URYq-15" value="Event Code&lt;div&gt;Event Password&lt;br&gt;[Capcha 3x Error]&lt;/div&gt;" style="shape=process;whiteSpace=wrap;html=1;backgroundOutline=1;fillColor=#60a917;fontColor=#ffffff;strokeColor=#2D7600;" parent="1" vertex="1">
          <mxGeometry x="287.5" y="1249.9999999999998" width="130" height="60" as="geometry" />
        </mxCell>
        <mxCell id="T3i2_18rqvz0KpT3URYq-24" style="edgeStyle=orthogonalEdgeStyle;rounded=0;orthogonalLoop=1;jettySize=auto;html=1;exitX=0;exitY=0.5;exitDx=0;exitDy=0;entryX=1;entryY=0.5;entryDx=0;entryDy=0;" parent="1" source="T3i2_18rqvz0KpT3URYq-17" target="T3i2_18rqvz0KpT3URYq-23" edge="1">
          <mxGeometry relative="1" as="geometry" />
        </mxCell>
        <mxCell id="T3i2_18rqvz0KpT3URYq-26" value="&lt;font style=&quot;color: light-dark(rgb(0, 0, 0), rgb(255, 0, 0)); font-size: 7px;&quot;&gt;Incorrect&lt;/font&gt;" style="edgeLabel;html=1;align=center;verticalAlign=middle;resizable=0;points=[];" parent="T3i2_18rqvz0KpT3URYq-24" vertex="1" connectable="0">
          <mxGeometry x="-0.025" y="-2" relative="1" as="geometry">
            <mxPoint as="offset" />
          </mxGeometry>
        </mxCell>
        <mxCell id="T3i2_18rqvz0KpT3URYq-28" style="edgeStyle=orthogonalEdgeStyle;rounded=0;orthogonalLoop=1;jettySize=auto;html=1;entryX=0.5;entryY=0;entryDx=0;entryDy=0;" parent="1" source="T3i2_18rqvz0KpT3URYq-17" target="T3i2_18rqvz0KpT3URYq-27" edge="1">
          <mxGeometry relative="1" as="geometry" />
        </mxCell>
        <mxCell id="T3i2_18rqvz0KpT3URYq-29" value="&lt;font style=&quot;color: light-dark(rgb(0, 0, 0), rgb(0, 255, 0)); font-size: 7px;&quot;&gt;Correct&lt;/font&gt;" style="edgeLabel;html=1;align=center;verticalAlign=middle;resizable=0;points=[];" parent="T3i2_18rqvz0KpT3URYq-28" vertex="1" connectable="0">
          <mxGeometry x="0.5471" relative="1" as="geometry">
            <mxPoint as="offset" />
          </mxGeometry>
        </mxCell>
        <mxCell id="T3i2_18rqvz0KpT3URYq-17" value="&lt;div style=&quot;line-height: 40%;&quot;&gt;&lt;div&gt;&lt;font style=&quot;font-size: 13px; line-height: 120%;&quot;&gt;Check Details&lt;/font&gt;&lt;/div&gt;&lt;/div&gt;" style="rhombus;whiteSpace=wrap;html=1;fillColor=#60a917;fontColor=#ffffff;strokeColor=#2D7600;" parent="1" vertex="1">
          <mxGeometry x="312.5" y="1339.9999999999998" width="80" height="80" as="geometry" />
        </mxCell>
        <mxCell id="T3i2_18rqvz0KpT3URYq-86" style="edgeStyle=orthogonalEdgeStyle;rounded=0;orthogonalLoop=1;jettySize=auto;html=1;exitX=0;exitY=0.5;exitDx=0;exitDy=0;entryX=1;entryY=0.5;entryDx=0;entryDy=0;" parent="1" source="T3i2_18rqvz0KpT3URYq-23" target="T3i2_18rqvz0KpT3URYq-83" edge="1">
          <mxGeometry relative="1" as="geometry" />
        </mxCell>
        <mxCell id="T3i2_18rqvz0KpT3URYq-23" value="&lt;font style=&quot;color: light-dark(rgb(0, 0, 0), rgb(255, 0, 0));&quot;&gt;Error!&lt;/font&gt;" style="ellipse;whiteSpace=wrap;html=1;fillColor=light-dark(#FFFFFF,#FF8484);strokeColor=light-dark(#000000,#CC0000);" parent="1" vertex="1">
          <mxGeometry x="152.5" y="1364.9999999999998" width="70" height="30" as="geometry" />
        </mxCell>
        <mxCell id="T3i2_18rqvz0KpT3URYq-65" style="edgeStyle=orthogonalEdgeStyle;rounded=0;orthogonalLoop=1;jettySize=auto;html=1;exitX=0.5;exitY=1;exitDx=0;exitDy=0;entryX=0.5;entryY=0;entryDx=0;entryDy=0;" parent="1" source="T3i2_18rqvz0KpT3URYq-27" target="T3i2_18rqvz0KpT3URYq-64" edge="1">
          <mxGeometry relative="1" as="geometry" />
        </mxCell>
        <mxCell id="T3i2_18rqvz0KpT3URYq-27" value="&lt;div style=&quot;&quot;&gt;&lt;span style=&quot;background-color: transparent; color: light-dark(rgb(255, 255, 255), rgb(18, 18, 18));&quot;&gt;&lt;font&gt;GuestID&lt;/font&gt;&lt;/span&gt;&lt;/div&gt;&lt;font&gt;&lt;div style=&quot;&quot;&gt;&lt;span style=&quot;background-color: transparent; color: light-dark(rgb(255, 255, 255), rgb(18, 18, 18));&quot;&gt;EventID&lt;/span&gt;&lt;/div&gt;&lt;div style=&quot;&quot;&gt;&lt;span style=&quot;background-color: transparent; color: light-dark(rgb(255, 255, 255), rgb(18, 18, 18));&quot;&gt;DeviceType&lt;br&gt;&lt;/span&gt;&lt;/div&gt;&lt;div style=&quot;&quot;&gt;&lt;span style=&quot;background-color: transparent; color: light-dark(rgb(255, 255, 255), rgb(18, 18, 18));&quot;&gt;CreatedAt&lt;/span&gt;&lt;/div&gt;&lt;/font&gt;" style="shape=parallelogram;perimeter=parallelogramPerimeter;whiteSpace=wrap;html=1;fixedSize=1;fillColor=#60a917;fontColor=#ffffff;strokeColor=#2D7600;align=center;" parent="1" vertex="1">
          <mxGeometry x="292.5" y="1459.9999999999998" width="120" height="70" as="geometry" />
        </mxCell>
        <mxCell id="T3i2_18rqvz0KpT3URYq-30" value="&lt;font style=&quot;font-size: 13px; color: light-dark(rgb(0, 0, 0), rgb(0, 0, 0));&quot;&gt;&lt;b style=&quot;&quot;&gt;GuestSession&lt;/b&gt;&lt;/font&gt;&lt;br&gt;&lt;font style=&quot;font-size: 9px;&quot;&gt;GuestID&lt;/font&gt;&lt;div&gt;&lt;font style=&quot;font-size: 9px;&quot;&gt;EventID&lt;/font&gt;&lt;/div&gt;&lt;div&gt;&lt;font style=&quot;font-size: 9px;&quot;&gt;DeviceType&lt;br&gt;GuestEmail&lt;br&gt;CreatedAt&lt;br&gt;UploadCount&lt;/font&gt;&lt;/div&gt;&lt;div&gt;&lt;font style=&quot;font-size: 9px;&quot;&gt;TermsChecked&lt;/font&gt;&lt;/div&gt;" style="shape=cylinder3;whiteSpace=wrap;html=1;boundedLbl=1;backgroundOutline=1;size=15;fillColor=#60a917;fontColor=#ffffff;strokeColor=#2D7600;" parent="1" vertex="1">
          <mxGeometry x="1110" y="80" width="97.5" height="150" as="geometry" />
        </mxCell>
        <mxCell id="T3i2_18rqvz0KpT3URYq-37" style="edgeStyle=orthogonalEdgeStyle;rounded=0;orthogonalLoop=1;jettySize=auto;html=1;exitX=0.5;exitY=1;exitDx=0;exitDy=0;entryX=0.5;entryY=0;entryDx=0;entryDy=0;" parent="1" source="T3i2_18rqvz0KpT3URYq-33" target="T3i2_18rqvz0KpT3URYq-36" edge="1">
          <mxGeometry relative="1" as="geometry" />
        </mxCell>
        <mxCell id="T3i2_18rqvz0KpT3URYq-33" value="Guest Upload" style="rounded=0;whiteSpace=wrap;html=1;fillColor=#60a917;fontColor=#ffffff;strokeColor=#2D7600;" parent="1" vertex="1">
          <mxGeometry x="292.5" y="1649.9999999999998" width="120" height="60" as="geometry" />
        </mxCell>
        <mxCell id="T3i2_18rqvz0KpT3URYq-34" value="&lt;font color=&quot;#000000&quot;&gt;&lt;b style=&quot;font-size: 13px;&quot;&gt;Event&lt;/b&gt;&lt;br&gt;&lt;font style=&quot;font-size: 9px;&quot;&gt;EventID&lt;br&gt;EventTypeID&lt;br&gt;UserID&lt;br&gt;Name&lt;br&gt;Date&lt;br&gt;StoragePath&lt;br&gt;Code&lt;br&gt;Password&lt;/font&gt;&lt;/font&gt;&lt;div&gt;&lt;font color=&quot;#000000&quot;&gt;&lt;font style=&quot;font-size: 9px;&quot;&gt;CreatedAt&lt;/font&gt;&lt;/font&gt;&lt;/div&gt;&lt;div&gt;&lt;font color=&quot;#000000&quot;&gt;&lt;font style=&quot;font-size: 9px;&quot;&gt;LastUpdated&lt;/font&gt;&lt;br&gt;&lt;/font&gt;&lt;/div&gt;&lt;div&gt;&lt;font color=&quot;#000000&quot;&gt;&lt;font style=&quot;font-size: 9px;&quot;&gt;Published&lt;/font&gt;&lt;/font&gt;&lt;/div&gt;&lt;div&gt;&lt;font color=&quot;#000000&quot;&gt;&lt;font style=&quot;font-size: 9px;&quot;&gt;TermsChecked&lt;/font&gt;&lt;/font&gt;&lt;/div&gt;" style="shape=cylinder3;whiteSpace=wrap;html=1;boundedLbl=1;backgroundOutline=1;size=15;fillColor=#1ba1e2;fontColor=#ffffff;strokeColor=#006EAF;" parent="1" vertex="1">
          <mxGeometry x="1390" y="80" width="97.5" height="220" as="geometry" />
        </mxCell>
        <mxCell id="T3i2_18rqvz0KpT3URYq-45" style="edgeStyle=orthogonalEdgeStyle;rounded=0;orthogonalLoop=1;jettySize=auto;html=1;exitX=0.5;exitY=1;exitDx=0;exitDy=0;entryX=0.5;entryY=0;entryDx=0;entryDy=0;" parent="1" source="T3i2_18rqvz0KpT3URYq-36" target="T3i2_18rqvz0KpT3URYq-41" edge="1">
          <mxGeometry relative="1" as="geometry" />
        </mxCell>
        <mxCell id="T3i2_18rqvz0KpT3URYq-36" value="Email&lt;div&gt;Photo/Video Upload&lt;/div&gt;&lt;div&gt;Terms Checked&lt;/div&gt;" style="shape=process;whiteSpace=wrap;html=1;backgroundOutline=1;fillColor=#60a917;fontColor=#ffffff;strokeColor=#2D7600;" parent="1" vertex="1">
          <mxGeometry x="278.75" y="1775" width="147.5" height="60" as="geometry" />
        </mxCell>
        <mxCell id="T3i2_18rqvz0KpT3URYq-38" value="File Storage&lt;div&gt;{EventID}\{Uploads}\{GuestID}&lt;/div&gt;" style="shape=dataStorage;whiteSpace=wrap;html=1;fixedSize=1;" parent="1" vertex="1">
          <mxGeometry x="642.5" y="1864.9999999999998" width="215" height="80" as="geometry" />
        </mxCell>
        <mxCell id="T3i2_18rqvz0KpT3URYq-40" value="Email&lt;br&gt;UploadCount&lt;div&gt;TermsChecked&lt;/div&gt;" style="shape=parallelogram;perimeter=parallelogramPerimeter;whiteSpace=wrap;html=1;fixedSize=1;fillColor=#60a917;fontColor=#ffffff;strokeColor=#2D7600;" parent="1" vertex="1">
          <mxGeometry x="477.5" y="1769.9999999999998" width="120" height="70" as="geometry" />
        </mxCell>
        <mxCell id="T3i2_18rqvz0KpT3URYq-43" style="edgeStyle=orthogonalEdgeStyle;rounded=0;orthogonalLoop=1;jettySize=auto;html=1;exitX=0;exitY=0.5;exitDx=0;exitDy=0;entryX=1;entryY=0.5;entryDx=0;entryDy=0;" parent="1" source="T3i2_18rqvz0KpT3URYq-41" target="T3i2_18rqvz0KpT3URYq-42" edge="1">
          <mxGeometry relative="1" as="geometry" />
        </mxCell>
        <mxCell id="T3i2_18rqvz0KpT3URYq-44" value="&lt;font style=&quot;color: light-dark(rgb(0, 0, 0), rgb(255, 0, 0));&quot;&gt;No&lt;/font&gt;" style="edgeLabel;html=1;align=center;verticalAlign=middle;resizable=0;points=[];" parent="T3i2_18rqvz0KpT3URYq-43" vertex="1" connectable="0">
          <mxGeometry x="-0.0813" relative="1" as="geometry">
            <mxPoint as="offset" />
          </mxGeometry>
        </mxCell>
        <mxCell id="T3i2_18rqvz0KpT3URYq-46" style="edgeStyle=orthogonalEdgeStyle;rounded=0;orthogonalLoop=1;jettySize=auto;html=1;exitX=1;exitY=0.5;exitDx=0;exitDy=0;entryX=0;entryY=0.5;entryDx=0;entryDy=0;" parent="1" source="T3i2_18rqvz0KpT3URYq-41" target="T3i2_18rqvz0KpT3URYq-47" edge="1">
          <mxGeometry relative="1" as="geometry">
            <mxPoint x="432.5" y="1904.9999999999998" as="targetPoint" />
          </mxGeometry>
        </mxCell>
        <mxCell id="T3i2_18rqvz0KpT3URYq-50" value="&lt;font style=&quot;color: light-dark(rgb(0, 0, 0), rgb(0, 255, 0));&quot;&gt;Yes&lt;/font&gt;" style="edgeLabel;html=1;align=center;verticalAlign=middle;resizable=0;points=[];" parent="T3i2_18rqvz0KpT3URYq-46" vertex="1" connectable="0">
          <mxGeometry x="0.0393" y="1" relative="1" as="geometry">
            <mxPoint as="offset" />
          </mxGeometry>
        </mxCell>
        <mxCell id="T3i2_18rqvz0KpT3URYq-41" value="&lt;div style=&quot;line-height: 40%;&quot;&gt;&lt;div&gt;&lt;font style=&quot;line-height: 120%; font-size: 11px;&quot;&gt;Upload Successful?&lt;/font&gt;&lt;/div&gt;&lt;/div&gt;" style="rhombus;whiteSpace=wrap;html=1;fillColor=#60a917;fontColor=#ffffff;strokeColor=#2D7600;" parent="1" vertex="1">
          <mxGeometry x="312.5" y="1864.9999999999998" width="80" height="80" as="geometry" />
        </mxCell>
        <mxCell id="T3i2_18rqvz0KpT3URYq-42" value="&lt;font style=&quot;color: light-dark(rgb(0, 0, 0), rgb(255, 0, 0));&quot;&gt;Error!&lt;/font&gt;" style="ellipse;whiteSpace=wrap;html=1;fillColor=light-dark(#FFFFFF,#FF8484);strokeColor=light-dark(#000000,#CC0000);" parent="1" vertex="1">
          <mxGeometry x="177.5" y="1889.9999999999998" width="70" height="30" as="geometry" />
        </mxCell>
        <mxCell id="T3i2_18rqvz0KpT3URYq-53" style="edgeStyle=orthogonalEdgeStyle;rounded=0;orthogonalLoop=1;jettySize=auto;html=1;exitX=1;exitY=0.5;exitDx=0;exitDy=0;entryX=0;entryY=0.5;entryDx=0;entryDy=0;" parent="1" source="T3i2_18rqvz0KpT3URYq-47" target="T3i2_18rqvz0KpT3URYq-38" edge="1">
          <mxGeometry relative="1" as="geometry" />
        </mxCell>
        <mxCell id="T3i2_18rqvz0KpT3URYq-59" style="edgeStyle=orthogonalEdgeStyle;rounded=0;orthogonalLoop=1;jettySize=auto;html=1;exitX=0.5;exitY=1;exitDx=0;exitDy=0;entryX=0.5;entryY=0;entryDx=0;entryDy=0;" parent="1" source="T3i2_18rqvz0KpT3URYq-47" target="T3i2_18rqvz0KpT3URYq-58" edge="1">
          <mxGeometry relative="1" as="geometry" />
        </mxCell>
        <mxCell id="T3i2_18rqvz0KpT3URYq-63" value="Thank you message" style="edgeLabel;html=1;align=center;verticalAlign=middle;resizable=0;points=[];" parent="T3i2_18rqvz0KpT3URYq-59" vertex="1" connectable="0">
          <mxGeometry x="-0.4333" relative="1" as="geometry">
            <mxPoint as="offset" />
          </mxGeometry>
        </mxCell>
        <mxCell id="qWnpxLDIaZIVIo5OUuWz-2" style="edgeStyle=orthogonalEdgeStyle;rounded=0;orthogonalLoop=1;jettySize=auto;html=1;exitX=1;exitY=0;exitDx=0;exitDy=0;entryX=0.5;entryY=1;entryDx=0;entryDy=0;" edge="1" parent="1" source="T3i2_18rqvz0KpT3URYq-47" target="qWnpxLDIaZIVIo5OUuWz-1">
          <mxGeometry relative="1" as="geometry">
            <Array as="points">
              <mxPoint x="566" y="1850" />
              <mxPoint x="680" y="1850" />
            </Array>
          </mxGeometry>
        </mxCell>
        <mxCell id="T3i2_18rqvz0KpT3URYq-47" value="Send Data" style="ellipse;whiteSpace=wrap;html=1;aspect=fixed;" parent="1" vertex="1">
          <mxGeometry x="497.5" y="1864.9999999999998" width="80" height="80" as="geometry" />
        </mxCell>
        <mxCell id="T3i2_18rqvz0KpT3URYq-48" style="edgeStyle=orthogonalEdgeStyle;rounded=0;orthogonalLoop=1;jettySize=auto;html=1;exitX=0.5;exitY=0;exitDx=0;exitDy=0;entryX=0.5;entryY=1;entryDx=0;entryDy=0;" parent="1" source="T3i2_18rqvz0KpT3URYq-47" target="T3i2_18rqvz0KpT3URYq-40" edge="1">
          <mxGeometry relative="1" as="geometry" />
        </mxCell>
        <mxCell id="T3i2_18rqvz0KpT3URYq-54" value="&lt;font style=&quot;&quot;&gt;&lt;span style=&quot;font-size: 13px;&quot;&gt;&lt;b&gt;FileMetadata&lt;/b&gt;&lt;/span&gt;&lt;br&gt;&lt;font size=&quot;1&quot;&gt;FileMetadataID&lt;br&gt;EventID&lt;br&gt;GuestID&lt;br&gt;FileName&lt;br&gt;FileType&lt;br&gt;FileSize&lt;br&gt;CapturedDateTime&lt;br&gt;GPSLatGPSLong&lt;br&gt;Checksum&lt;br&gt;UploadDate&lt;br&gt;Tags&lt;br&gt;&lt;/font&gt;&lt;/font&gt;&lt;div&gt;&lt;font style=&quot;&quot;&gt;&lt;font size=&quot;1&quot;&gt;Deleted&lt;/font&gt;&lt;/font&gt;&lt;/div&gt;" style="shape=cylinder3;whiteSpace=wrap;html=1;boundedLbl=1;backgroundOutline=1;size=15;" parent="1" vertex="1">
          <mxGeometry x="1250" y="80" width="100" height="220" as="geometry" />
        </mxCell>
        <mxCell id="T3i2_18rqvz0KpT3URYq-58" value="&lt;font style=&quot;color: light-dark(rgb(0, 0, 0), rgb(0, 102, 0));&quot;&gt;Success!&lt;/font&gt;" style="ellipse;whiteSpace=wrap;html=1;fillColor=light-dark(#FFFFFF,#CCFF99);strokeColor=light-dark(#000000,#006600);" parent="1" vertex="1">
          <mxGeometry x="502.5" y="1979.9999999999998" width="70" height="30" as="geometry" />
        </mxCell>
        <mxCell id="T3i2_18rqvz0KpT3URYq-62" value="&lt;font color=&quot;#000000&quot;&gt;&lt;b style=&quot;font-size: 13px;&quot;&gt;EventCustomisation&lt;/b&gt;&lt;/font&gt;&lt;div&gt;&lt;font color=&quot;#000000&quot;&gt;&lt;font style=&quot;font-size: 9px;&quot;&gt;EventCustomisationID&lt;/font&gt;&lt;/font&gt;&lt;/div&gt;&lt;div&gt;&lt;font color=&quot;#000000&quot;&gt;&lt;font style=&quot;font-size: 9px;&quot;&gt;EventID&lt;br&gt;WelcomeMessage&lt;br&gt;UploadInstructions&lt;/font&gt;&lt;/font&gt;&lt;/div&gt;&lt;div&gt;&lt;font color=&quot;#000000&quot;&gt;&lt;font style=&quot;font-size: 9px;&quot;&gt;ThankYouMessage&lt;br&gt;FooterMessage&lt;br&gt;StorageLimitMessage&lt;br&gt;ButtonColour1&lt;br&gt;ButtonColour2&lt;br&gt;BakgroundColour&lt;br&gt;BackgroundImage&lt;br&gt;CoverPhotoPath&lt;br&gt;ThemeID&lt;br&gt;&lt;/font&gt;&lt;/font&gt;&lt;/div&gt;" style="shape=cylinder3;whiteSpace=wrap;html=1;boundedLbl=1;backgroundOutline=1;size=15;fillColor=light-dark(#1BA1E2,#0F5577);fontColor=#ffffff;strokeColor=#006EAF;" parent="1" vertex="1">
          <mxGeometry x="1530" y="80" width="140" height="237.5" as="geometry" />
        </mxCell>
        <mxCell id="T3i2_18rqvz0KpT3URYq-66" style="edgeStyle=orthogonalEdgeStyle;rounded=0;orthogonalLoop=1;jettySize=auto;html=1;exitX=0.5;exitY=1;exitDx=0;exitDy=0;entryX=0.5;entryY=0;entryDx=0;entryDy=0;" parent="1" source="T3i2_18rqvz0KpT3URYq-64" target="T3i2_18rqvz0KpT3URYq-33" edge="1">
          <mxGeometry relative="1" as="geometry" />
        </mxCell>
        <mxCell id="T3i2_18rqvz0KpT3URYq-64" value="&lt;b&gt;&lt;font style=&quot;color: light-dark(rgb(0, 0, 0), rgb(255, 255, 255));&quot;&gt;Customisation&lt;/font&gt;&lt;/b&gt;&lt;div&gt;&lt;b&gt;&lt;font style=&quot;color: light-dark(rgb(0, 0, 0), rgb(255, 255, 255));&quot;&gt;Data&lt;/font&gt;&lt;/b&gt;&lt;/div&gt;" style="shape=parallelogram;perimeter=parallelogramPerimeter;whiteSpace=wrap;html=1;fixedSize=1;fillColor=light-dark(#1BA1E2,#0F5577);fontColor=#ffffff;strokeColor=#006EAF;" parent="1" vertex="1">
          <mxGeometry x="292.5" y="1549.9999999999998" width="120" height="60" as="geometry" />
        </mxCell>
        <mxCell id="T3i2_18rqvz0KpT3URYq-68" value="GuestSession" style="shape=cylinder3;whiteSpace=wrap;html=1;boundedLbl=1;backgroundOutline=1;size=15;fillColor=#60a917;fontColor=#ffffff;strokeColor=#2D7600;" parent="1" vertex="1">
          <mxGeometry x="492.5" y="1459.9999999999998" width="90" height="70" as="geometry" />
        </mxCell>
        <mxCell id="T3i2_18rqvz0KpT3URYq-69" style="edgeStyle=orthogonalEdgeStyle;rounded=0;orthogonalLoop=1;jettySize=auto;html=1;exitX=1;exitY=0.5;exitDx=0;exitDy=0;entryX=0;entryY=0.5;entryDx=0;entryDy=0;entryPerimeter=0;" parent="1" source="T3i2_18rqvz0KpT3URYq-27" target="T3i2_18rqvz0KpT3URYq-68" edge="1">
          <mxGeometry relative="1" as="geometry" />
        </mxCell>
        <mxCell id="T3i2_18rqvz0KpT3URYq-71" style="edgeStyle=orthogonalEdgeStyle;rounded=0;orthogonalLoop=1;jettySize=auto;html=1;exitX=1;exitY=0.5;exitDx=0;exitDy=0;exitPerimeter=0;entryX=0;entryY=0.5;entryDx=0;entryDy=0;" parent="1" source="T3i2_18rqvz0KpT3URYq-70" target="T3i2_18rqvz0KpT3URYq-64" edge="1">
          <mxGeometry relative="1" as="geometry" />
        </mxCell>
        <mxCell id="T3i2_18rqvz0KpT3URYq-70" value="&lt;font style=&quot;color: light-dark(rgb(0, 0, 0), rgb(255, 255, 255));&quot;&gt;EventCustomisation&lt;/font&gt;" style="shape=cylinder3;whiteSpace=wrap;html=1;boundedLbl=1;backgroundOutline=1;size=15;fillColor=light-dark(#60a917, #0f5577);fontColor=#ffffff;strokeColor=#2D7600;" parent="1" vertex="1">
          <mxGeometry x="112.5" y="1544.9999999999998" width="125" height="70" as="geometry" />
        </mxCell>
        <mxCell id="T3i2_18rqvz0KpT3URYq-72" style="edgeStyle=orthogonalEdgeStyle;rounded=0;orthogonalLoop=1;jettySize=auto;html=1;exitX=0.5;exitY=0;exitDx=0;exitDy=0;entryX=0.5;entryY=1;entryDx=0;entryDy=0;entryPerimeter=0;" parent="1" source="T3i2_18rqvz0KpT3URYq-40" target="T3i2_18rqvz0KpT3URYq-68" edge="1">
          <mxGeometry relative="1" as="geometry" />
        </mxCell>
        <mxCell id="T3i2_18rqvz0KpT3URYq-78" style="edgeStyle=orthogonalEdgeStyle;rounded=0;orthogonalLoop=1;jettySize=auto;html=1;exitX=0;exitY=0.5;exitDx=0;exitDy=0;exitPerimeter=0;entryX=1;entryY=0.5;entryDx=0;entryDy=0;" parent="1" source="T3i2_18rqvz0KpT3URYq-73" target="T3i2_18rqvz0KpT3URYq-17" edge="1">
          <mxGeometry relative="1" as="geometry" />
        </mxCell>
        <mxCell id="T3i2_18rqvz0KpT3URYq-73" value="&lt;font style=&quot;color: light-dark(rgb(0, 0, 0), rgb(255, 255, 255));&quot;&gt;Event&lt;/font&gt;" style="shape=cylinder3;whiteSpace=wrap;html=1;boundedLbl=1;backgroundOutline=1;size=15;fillColor=#1ba1e2;fontColor=#ffffff;strokeColor=#006EAF;" parent="1" vertex="1">
          <mxGeometry x="507.5" y="1354.9999999999998" width="60" height="50" as="geometry" />
        </mxCell>
        <mxCell id="T3i2_18rqvz0KpT3URYq-79" value="" style="endArrow=classic;startArrow=classic;html=1;rounded=0;entryX=0;entryY=0.5;entryDx=0;entryDy=0;entryPerimeter=0;" parent="1" target="T3i2_18rqvz0KpT3URYq-73" edge="1">
          <mxGeometry width="50" height="50" relative="1" as="geometry">
            <mxPoint x="392.5" y="1379.9999999999998" as="sourcePoint" />
            <mxPoint x="732.5" y="1469.9999999999998" as="targetPoint" />
          </mxGeometry>
        </mxCell>
        <mxCell id="T3i2_18rqvz0KpT3URYq-87" style="edgeStyle=orthogonalEdgeStyle;rounded=0;orthogonalLoop=1;jettySize=auto;html=1;exitX=0;exitY=0.5;exitDx=0;exitDy=0;entryX=1;entryY=0.5;entryDx=0;entryDy=0;" parent="1" source="T3i2_18rqvz0KpT3URYq-83" target="T3i2_18rqvz0KpT3URYq-85" edge="1">
          <mxGeometry relative="1" as="geometry" />
        </mxCell>
        <mxCell id="T3i2_18rqvz0KpT3URYq-91" value="Yes" style="edgeLabel;html=1;align=center;verticalAlign=middle;resizable=0;points=[];" parent="T3i2_18rqvz0KpT3URYq-87" vertex="1" connectable="0">
          <mxGeometry x="-0.3111" y="2" relative="1" as="geometry">
            <mxPoint as="offset" />
          </mxGeometry>
        </mxCell>
        <mxCell id="T3i2_18rqvz0KpT3URYq-88" style="edgeStyle=orthogonalEdgeStyle;rounded=0;orthogonalLoop=1;jettySize=auto;html=1;exitX=0.5;exitY=0;exitDx=0;exitDy=0;entryX=0.5;entryY=0;entryDx=0;entryDy=0;" parent="1" source="T3i2_18rqvz0KpT3URYq-83" target="T3i2_18rqvz0KpT3URYq-15" edge="1">
          <mxGeometry relative="1" as="geometry" />
        </mxCell>
        <mxCell id="T3i2_18rqvz0KpT3URYq-90" value="No" style="edgeLabel;html=1;align=center;verticalAlign=middle;resizable=0;points=[];" parent="T3i2_18rqvz0KpT3URYq-88" vertex="1" connectable="0">
          <mxGeometry x="-0.8222" y="-1" relative="1" as="geometry">
            <mxPoint as="offset" />
          </mxGeometry>
        </mxCell>
        <mxCell id="T3i2_18rqvz0KpT3URYq-83" value="3rd Time?" style="rhombus;whiteSpace=wrap;html=1;fillColor=#e51400;fontColor=light-dark(#FFFFFF,#CC0000);strokeColor=#B20000;" parent="1" vertex="1">
          <mxGeometry x="22.5" y="1339.9999999999998" width="80" height="80" as="geometry" />
        </mxCell>
        <mxCell id="T3i2_18rqvz0KpT3URYq-89" style="edgeStyle=orthogonalEdgeStyle;rounded=0;orthogonalLoop=1;jettySize=auto;html=1;exitX=0.5;exitY=0;exitDx=0;exitDy=0;" parent="1" source="T3i2_18rqvz0KpT3URYq-85" edge="1">
          <mxGeometry relative="1" as="geometry">
            <mxPoint x="352.5" y="1249.9999999999998" as="targetPoint" />
            <Array as="points">
              <mxPoint x="-67.5" y="1229.9999999999998" />
              <mxPoint x="353.5" y="1229.9999999999998" />
              <mxPoint x="353.5" y="1249.9999999999998" />
            </Array>
          </mxGeometry>
        </mxCell>
        <mxCell id="T3i2_18rqvz0KpT3URYq-85" value="Add Capcha" style="shape=hexagon;perimeter=hexagonPerimeter2;whiteSpace=wrap;html=1;fixedSize=1;fillColor=#e51400;fontColor=light-dark(#FFFFFF,#FF0000);strokeColor=#B20000;" parent="1" vertex="1">
          <mxGeometry x="-137.5" y="1339.9999999999998" width="120" height="80" as="geometry" />
        </mxCell>
        <mxCell id="qWnpxLDIaZIVIo5OUuWz-1" value="&lt;span style=&quot;font-size: x-small;&quot;&gt;FileMetadataID&lt;/span&gt;&lt;br style=&quot;font-size: x-small;&quot;&gt;&lt;span style=&quot;font-size: x-small;&quot;&gt;EventID&lt;/span&gt;&lt;br style=&quot;font-size: x-small;&quot;&gt;&lt;span style=&quot;font-size: x-small;&quot;&gt;GuestID&lt;/span&gt;&lt;br style=&quot;font-size: x-small;&quot;&gt;&lt;span style=&quot;font-size: x-small;&quot;&gt;FileName&lt;/span&gt;&lt;br style=&quot;font-size: x-small;&quot;&gt;&lt;span style=&quot;font-size: x-small;&quot;&gt;FileType&lt;/span&gt;&lt;br style=&quot;font-size: x-small;&quot;&gt;&lt;span style=&quot;font-size: x-small;&quot;&gt;FileSize&lt;/span&gt;&lt;br style=&quot;font-size: x-small;&quot;&gt;&lt;span style=&quot;font-size: x-small;&quot;&gt;CapturedDateTime&lt;/span&gt;&lt;br style=&quot;font-size: x-small;&quot;&gt;&lt;span style=&quot;font-size: x-small;&quot;&gt;GPSLatGPSLong&lt;/span&gt;&lt;br style=&quot;font-size: x-small;&quot;&gt;&lt;span style=&quot;font-size: x-small;&quot;&gt;Checksum&lt;/span&gt;&lt;br style=&quot;font-size: x-small;&quot;&gt;&lt;span style=&quot;font-size: x-small;&quot;&gt;UploadDate&lt;/span&gt;" style="shape=parallelogram;perimeter=parallelogramPerimeter;whiteSpace=wrap;html=1;fixedSize=1;" vertex="1" parent="1">
          <mxGeometry x="620" y="1680" width="120" height="150" as="geometry" />
        </mxCell>
        <mxCell id="qWnpxLDIaZIVIo5OUuWz-3" value="FileMetadata" style="shape=cylinder3;whiteSpace=wrap;html=1;boundedLbl=1;backgroundOutline=1;size=15;" vertex="1" parent="1">
          <mxGeometry x="640" y="1570" width="80" height="55" as="geometry" />
        </mxCell>
        <mxCell id="qWnpxLDIaZIVIo5OUuWz-4" style="edgeStyle=orthogonalEdgeStyle;rounded=0;orthogonalLoop=1;jettySize=auto;html=1;exitX=0.5;exitY=0;exitDx=0;exitDy=0;entryX=0.5;entryY=1;entryDx=0;entryDy=0;entryPerimeter=0;" edge="1" parent="1" source="qWnpxLDIaZIVIo5OUuWz-1" target="qWnpxLDIaZIVIo5OUuWz-3">
          <mxGeometry relative="1" as="geometry" />
        </mxCell>
        <mxCell id="qWnpxLDIaZIVIo5OUuWz-5" value="&lt;b&gt;ErrorLogs&lt;/b&gt;&lt;div&gt;&lt;font size=&quot;1&quot;&gt;LogID&lt;/font&gt;&lt;/div&gt;&lt;div&gt;&lt;font size=&quot;1&quot;&gt;TimeStamp&lt;/font&gt;&lt;/div&gt;&lt;div&gt;&lt;font size=&quot;1&quot;&gt;EventID&lt;/font&gt;&lt;/div&gt;&lt;div&gt;&lt;font size=&quot;1&quot;&gt;UserIP&lt;/font&gt;&lt;/div&gt;&lt;div&gt;&lt;font size=&quot;1&quot;&gt;UserAgent&lt;/font&gt;&lt;/div&gt;&lt;div&gt;&lt;font size=&quot;1&quot;&gt;Endpoint&lt;/font&gt;&lt;/div&gt;&lt;div&gt;&lt;font size=&quot;1&quot;&gt;Method&lt;/font&gt;&lt;/div&gt;&lt;div&gt;&lt;font size=&quot;1&quot;&gt;StatusCode&lt;/font&gt;&lt;/div&gt;&lt;div&gt;&lt;font size=&quot;1&quot;&gt;ErrorType&lt;/font&gt;&lt;/div&gt;&lt;div&gt;&lt;font size=&quot;1&quot;&gt;Message&lt;/font&gt;&lt;/div&gt;&lt;div&gt;&lt;font size=&quot;1&quot;&gt;Payload&lt;/font&gt;&lt;/div&gt;" style="shape=cylinder3;whiteSpace=wrap;html=1;boundedLbl=1;backgroundOutline=1;size=15;fillColor=#e51400;fontColor=#ffffff;strokeColor=#B20000;" vertex="1" parent="1">
          <mxGeometry x="1700" y="80" width="70" height="210" as="geometry" />
        </mxCell>
        <mxCell id="qWnpxLDIaZIVIo5OUuWz-13" style="edgeStyle=orthogonalEdgeStyle;rounded=0;orthogonalLoop=1;jettySize=auto;html=1;exitX=0;exitY=0.5;exitDx=0;exitDy=0;entryX=1;entryY=0.5;entryDx=0;entryDy=0;" edge="1" parent="1" source="qWnpxLDIaZIVIo5OUuWz-6" target="qWnpxLDIaZIVIo5OUuWz-9">
          <mxGeometry relative="1" as="geometry" />
        </mxCell>
        <mxCell id="qWnpxLDIaZIVIo5OUuWz-14" style="edgeStyle=orthogonalEdgeStyle;rounded=0;orthogonalLoop=1;jettySize=auto;html=1;exitX=1;exitY=0.5;exitDx=0;exitDy=0;entryX=0;entryY=0.5;entryDx=0;entryDy=0;" edge="1" parent="1" source="qWnpxLDIaZIVIo5OUuWz-6" target="qWnpxLDIaZIVIo5OUuWz-12">
          <mxGeometry relative="1" as="geometry" />
        </mxCell>
        <mxCell id="qWnpxLDIaZIVIo5OUuWz-6" value="Sign Up / Login" style="rhombus;whiteSpace=wrap;html=1;fillColor=#fa6800;fontColor=#000000;strokeColor=#C73500;" vertex="1" parent="1">
          <mxGeometry x="582.5" y="290" width="80" height="80" as="geometry" />
        </mxCell>
        <mxCell id="qWnpxLDIaZIVIo5OUuWz-8" value="&lt;b&gt;User&lt;/b&gt;&lt;div&gt;&lt;font style=&quot;font-size: 9px;&quot;&gt;UserID&lt;/font&gt;&lt;/div&gt;&lt;div&gt;&lt;font style=&quot;font-size: 9px;&quot;&gt;FirstName&lt;/font&gt;&lt;/div&gt;&lt;div&gt;&lt;font style=&quot;font-size: 9px;&quot;&gt;LastName&lt;/font&gt;&lt;/div&gt;&lt;div&gt;&lt;font style=&quot;font-size: 9px;&quot;&gt;Email&lt;/font&gt;&lt;/div&gt;&lt;div&gt;&lt;font style=&quot;font-size: 9px;&quot;&gt;HashedPassword&lt;/font&gt;&lt;/div&gt;&lt;div&gt;&lt;font style=&quot;font-size: 9px;&quot;&gt;Verified&lt;/font&gt;&lt;/div&gt;&lt;div&gt;&lt;font style=&quot;font-size: 9px;&quot;&gt;VerifiedDateTime&lt;/font&gt;&lt;/div&gt;&lt;div&gt;&lt;font style=&quot;font-size: 9px;&quot;&gt;MarkedForDeletion&lt;/font&gt;&lt;/div&gt;" style="shape=cylinder3;whiteSpace=wrap;html=1;boundedLbl=1;backgroundOutline=1;size=15;fillColor=#fa6800;fontColor=#000000;strokeColor=#C73500;" vertex="1" parent="1">
          <mxGeometry x="1000" y="80" width="90" height="170" as="geometry" />
        </mxCell>
        <mxCell id="qWnpxLDIaZIVIo5OUuWz-9" value="Sign Up" style="rounded=0;whiteSpace=wrap;html=1;fillColor=#fa6800;fontColor=#000000;strokeColor=#C73500;" vertex="1" parent="1">
          <mxGeometry x="440" y="300" width="120" height="60" as="geometry" />
        </mxCell>
        <mxCell id="qWnpxLDIaZIVIo5OUuWz-10" value="Profile" style="rounded=0;whiteSpace=wrap;html=1;fillColor=#fa6800;fontColor=#000000;strokeColor=#C73500;" vertex="1" parent="1">
          <mxGeometry x="690" y="450" width="120" height="60" as="geometry" />
        </mxCell>
        <mxCell id="qWnpxLDIaZIVIo5OUuWz-12" value="Email&lt;div&gt;Password&lt;/div&gt;" style="shape=process;whiteSpace=wrap;html=1;backgroundOutline=1;fillColor=#fa6800;fontColor=#000000;strokeColor=#C73500;" vertex="1" parent="1">
          <mxGeometry x="690" y="300" width="120" height="60" as="geometry" />
        </mxCell>
      </root>
    </mxGraphModel>
  </diagram>
</mxfile>
